<svg xmlns="http://www.w3.org/2000/svg" width="54.251" height="54.251" viewBox="0 0 54.251 54.251"><path d="M0,0H54.251V54.251H0Z" fill="none"/><path d="M29.062,9a3.75,3.75,0,1,0-3.75-3.75A3.761,3.761,0,0,0,29.062,9ZM9.375,21.187a9.375,9.375,0,0,0,0,18.749,9.375,9.375,0,0,0,0-18.749Zm0,15.937A6.562,6.562,0,0,1,9.375,24a6.562,6.562,0,0,1,0,13.125ZM20.249,18.374l4.5-4.5,1.5,1.5a13.135,13.135,0,0,0,9.562,3.937v-3.75a9.315,9.315,0,0,1-6.75-2.812L25.5,9.187a4.6,4.6,0,0,0-3-1.125,3.146,3.146,0,0,0-2.625,1.125l-5.25,5.25A3.7,3.7,0,0,0,13.5,17.062a3.146,3.146,0,0,0,1.125,2.625l6,5.25v9.375h3.75V22.687Zm15.375,2.812A9.375,9.375,0,1,0,45,30.562,9.284,9.284,0,0,0,35.624,21.187Zm0,15.937a6.562,6.562,0,1,1,6.562-6.562A6.643,6.643,0,0,1,35.624,37.124Z" transform="translate(4.253 6.794)" fill="#008489"/></svg>