<svg xmlns="http://www.w3.org/2000/svg" width="48.362" height="48.362" viewBox="0 0 48.362 48.362"><path d="M0,0H48.362V48.362H0Z" fill="none"/><g transform="translate(15.499 7.934)"><path d="M14.317,19.3c-.154.647-.281,1.218-.432,1.778a.448.448,0,0,1-.244.254,44.9,44.9,0,0,1-4.664,1.569,6.584,6.584,0,0,1-4.1-.372,4.456,4.456,0,0,1-2.658-4.45A32.8,32.8,0,0,1,3.6,11.591c.432-1.74.9-3.5,1.272-5.275a6.3,6.3,0,0,0-.02-1.875A1.262,1.262,0,0,0,3.726,3.275a5.344,5.344,0,0,0-3.151.313c-.157.063-.335.09-.576.16.144-.63.254-1.186.408-1.74a.581.581,0,0,1,.315-.327A20.932,20.932,0,0,1,5.822.064,7.062,7.062,0,0,1,9.147.412,4.425,4.425,0,0,1,12.006,5.1a39.9,39.9,0,0,1-1.53,6.913q-.6,2.505-1.155,5.021a3.692,3.692,0,0,0-.054.884c.027,1.273.526,1.882,1.741,1.907a15.976,15.976,0,0,0,2.525-.282A5.529,5.529,0,0,0,14.317,19.3Z" transform="translate(0 10.353)" fill="#008489"/><circle cx="4" cy="4" r="4" transform="translate(5.501 -0.572)" fill="#008489"/></g></svg>