<svg xmlns="http://www.w3.org/2000/svg" width="50.919" height="50.919" viewBox="0 0 50.919 50.919"><path d="M0,0H50.919V50.919H0Z" fill="none"/><path d="M18.884,8.372a3.436,3.436,0,1,0-3.436-3.436A3.446,3.446,0,0,0,18.884,8.372Zm-6.356,5.841L7.718,38.435h3.608l3.092-13.743,3.608,3.436V38.435h3.436V25.551l-3.608-3.436,1.031-5.154a12.579,12.579,0,0,0,9.449,4.295V17.82A8.451,8.451,0,0,1,20.946,13.7l-1.718-2.749a3.543,3.543,0,0,0-2.92-1.718c-.515,0-.859.172-1.374.172L6,13.182v8.074H9.436V15.415l3.092-1.2" transform="translate(8.73 4.682)" fill="#008489"/></svg>