<svg xmlns="http://www.w3.org/2000/svg" width="33" height="33" viewBox="0 0 33 33"><path d="M0,0H33V33H0Z" fill="none"/><path d="M26,2H10A2.675,2.675,0,0,0,7.333,4.667v16A2.675,2.675,0,0,0,10,23.333H26a2.675,2.675,0,0,0,2.667-2.667v-16A2.675,2.675,0,0,0,26,2ZM14.667,12a2,2,0,0,1-2,2H11.333v2.667h-2v-8h3.333a2,2,0,0,1,2,2Zm6.667,2.667a2,2,0,0,1-2,2H16v-8h3.333a2,2,0,0,1,2,2Zm5.333-4h-2V12h2v2h-2v2.667h-2v-8h4ZM11.333,12h1.333V10.667H11.333ZM4.667,7.333H2V26a2.675,2.675,0,0,0,2.667,2.667H23.333V26H4.667ZM18,14.667h1.333v-4H18Z" transform="translate(1.167 1.167)" fill="#008489"/></svg>