<svg xmlns="http://www.w3.org/2000/svg" width="50.759" height="50.759" viewBox="0 0 50.759 50.759"><g transform="translate(2.608 14.134)"><g transform="translate(0 0)"><path d="M1.879,1.922V0H0V3.09Z" transform="translate(3.758 1.373)" fill="#008489"/><path d="M43.01,22.794V11.946a.326.326,0,0,0-.348-.343H27.281a.326.326,0,0,0-.348.343V22.794H15.1V11.946a.326.326,0,0,0-.348-.343H9.6a.326.326,0,0,0-.348.343V22.794H0V7.621L12.249,0,24.636,7.758a.259.259,0,0,0,.209.069h20.67V22.794Z" fill="#008489"/><path d="M25.75,3.845,19.7,0H0L6.055,3.845Z" transform="translate(18.86 3.295)" fill="#008489"/></g></g><path d="M0,0H50.759V50.759H0Z" fill="none"/></svg>