<svg xmlns="http://www.w3.org/2000/svg" width="50.468" height="50.468" viewBox="0 0 50.468 50.468"><path d="M31.7,6.821A2.694,2.694,0,0,0,29.14,5H9.31A2.711,2.711,0,0,0,6.75,6.821L3,17.619V32.042a1.808,1.808,0,0,0,1.8,1.8h1.8a1.808,1.808,0,0,0,1.8-1.8v-1.8H30.042v1.8a1.808,1.808,0,0,0,1.8,1.8h1.8a1.808,1.808,0,0,0,1.8-1.8V17.619ZM9.31,24.831a2.7,2.7,0,1,1,2.7-2.7A2.7,2.7,0,0,1,9.31,24.831Zm19.831,0a2.7,2.7,0,1,1,2.7-2.7A2.7,2.7,0,0,1,29.14,24.831ZM6.606,15.817,9.31,7.7H29.14l2.7,8.113Z" transform="translate(5.71 7.315)" fill="#008489"/><path d="M0,0H50.468V50.468H0Z" fill="none"/></svg>